<svg width="27" height="19" viewBox="0 0 27 19" fill="none" xmlns="http://www.w3.org/2000/svg">
<path d="M1.78001 8.91997C1.43001 8.55997 1.30001 8.04996 1.43001 7.55996C1.56001 7.06996 1.94001 6.69997 2.42001 6.56997C2.90001 6.43997 3.42001 6.56997 3.78001 6.91997L11.26 14.4L23.6 1.60994C23.96 1.25994 24.47 1.12997 24.96 1.25997C25.45 1.38997 25.82 1.76996 25.95 2.24996C26.08 2.72996 25.95 3.24994 25.6 3.60994L12.26 17.4C11.99 17.67 11.64 17.81 11.26 17.81C10.88 17.81 10.53 17.66 10.26 17.4L1.78001 8.91997Z" fill="white" stroke="white" stroke-width="2" stroke-linecap="round" stroke-linejoin="round"/>
</svg>
