<svg width="20" height="20" viewBox="0 0 20 20" fill="none" xmlns="http://www.w3.org/2000/svg">
<path d="M3.33333 15H16.6667C17.125 15 17.5 14.625 17.5 14.1667C17.5 13.7083 17.125 13.3333 16.6667 13.3333H3.33333C2.875 13.3333 2.5 13.7083 2.5 14.1667C2.5 14.625 2.875 15 3.33333 15ZM3.33333 10.8333H16.6667C17.125 10.8333 17.5 10.4583 17.5 10C17.5 9.54167 17.125 9.16667 16.6667 9.16667H3.33333C2.875 9.16667 2.5 9.54167 2.5 10C2.5 10.4583 2.875 10.8333 3.33333 10.8333ZM2.5 5.83333C2.5 6.29167 2.875 6.66667 3.33333 6.66667H16.6667C17.125 6.66667 17.5 6.29167 17.5 5.83333C17.5 5.375 17.125 5 16.6667 5H3.33333C2.875 5 2.5 5.375 2.5 5.83333Z" fill="#8075B3"/>
</svg>
