<svg width="19" height="16" viewBox="0 0 19 16" fill="none" xmlns="http://www.w3.org/2000/svg">
<path fill-rule="evenodd" clip-rule="evenodd" d="M2.10012 9.10003C2.60012 12.87 5.84015 15.79 9.75015 15.79C12.1701 15.79 14.3301 14.67 15.7501 12.92C16.0201 12.59 15.9702 12.1 15.6402 11.83C15.3102 11.56 14.8201 11.61 14.5601 11.94C13.4301 13.34 11.7002 14.23 9.76016 14.23C6.77016 14.23 4.27017 12.1 3.71017 9.27001L3.82015 9.38003C4.12015 9.68003 4.61012 9.68003 4.91012 9.38003C5.21012 9.08003 5.21012 8.59003 4.91012 8.29003L3.37014 6.75002C3.07014 6.45002 2.58018 6.45002 2.28018 6.75002L0.740137 8.29003C0.440137 8.59003 0.440137 9.08003 0.740137 9.38003C1.04014 9.68003 1.53016 9.68003 1.83016 9.38003L2.12014 9.09002L2.10012 9.10003Z" fill="black"/>
<path fill-rule="evenodd" clip-rule="evenodd" d="M15.8002 6.87L15.6902 6.76001C15.3902 6.46001 14.9001 6.46001 14.6001 6.76001C14.3001 7.06001 14.3001 7.55001 14.6001 7.85001L16.1402 9.39001C16.4402 9.69001 16.9301 9.69001 17.2301 9.39001L18.7702 7.85001C19.0702 7.55001 19.0702 7.06001 18.7702 6.76001C18.4702 6.46001 17.9802 6.46001 17.6802 6.76001L17.3902 7.04999C16.8902 3.27999 13.6502 0.359985 9.74016 0.359985C7.32016 0.359985 5.16016 1.48001 3.74016 3.23001C3.47016 3.56001 3.52014 4.05001 3.85014 4.32001C4.18014 4.59001 4.67016 4.53999 4.93016 4.20999C6.06016 2.80999 7.79015 1.92001 9.73015 1.92001C12.7201 1.92001 15.2202 4.05 15.7802 6.88L15.8002 6.87Z" fill="black"/>
</svg>
