<svg width="63" height="63" viewBox="0 0 63 63" fill="none" xmlns="http://www.w3.org/2000/svg">
<mask id="mask0_3_335" style="mask-type:luminance" maskUnits="userSpaceOnUse" x="0" y="0" width="63" height="63">
<path d="M31.5 63C48.897 63 63 48.897 63 31.5C63 14.103 48.897 0 31.5 0C14.103 0 0 14.103 0 31.5C0 48.897 14.103 63 31.5 63Z" fill="white"/>
</mask>
<g mask="url(#mask0_3_335)">
<path d="M-2.16992 19.8H70.2401V61.98C70.2401 65.34 67.5101 68.07 64.1501 68.07H3.89008C0.540076 68.07 -2.16992 65.35 -2.16992 62.01V19.81V19.8Z" fill="url(#paint0_linear_3_335)"/>
<path d="M27.35 35.91L28.17 41.46L31.42 43.92L34.69 41.46V34.54L37.95 36.84L39.58 42.38L38.76 47.01L36.32 51.63L34.69 52.55L35.11 63.5H28.71L28.17 53.48L26.54 48.85L23.28 45.16V40.54L24.91 35.91H27.35Z" fill="white"/>
<path d="M4.06 -2.90002H58.88C61.16 -2.90002 63 -1.05003 63 1.21997V19.79H0V1.15002C0 -1.08998 1.82 -2.90997 4.06 -2.90997V-2.90002Z" fill="url(#paint1_linear_3_335)"/>
<path d="M52.3401 12.72H38.2101C37.5701 12.72 37.05 13.24 37.05 13.88C37.05 14.52 37.5701 15.04 38.2101 15.04H52.3401C52.9801 15.04 53.5001 14.52 53.5001 13.88C53.5001 13.24 52.9801 12.72 52.3401 12.72Z" fill="white"/>
<path d="M12.8502 13.88C12.8502 14.55 12.3102 15.1 11.6302 15.1C10.9502 15.1 10.4102 14.56 10.4102 13.88C10.4102 13.2 10.9502 12.66 11.6302 12.66C12.3102 12.66 12.8502 13.2 12.8502 13.88Z" fill="white"/>
<path d="M15.97 12.67C15.33 12.67 14.75 13.25 14.75 13.89C14.75 14.53 15.33 15.11 15.97 15.11C16.61 15.11 17.19 14.53 17.19 13.89C17.19 13.25 16.61 12.67 15.97 12.67Z" fill="white"/>
<path d="M20.3 12.67C19.66 12.67 19.0801 13.25 19.0801 13.89C19.0801 14.53 19.66 15.11 20.3 15.11C20.94 15.11 21.5201 14.53 21.5201 13.89C21.5201 13.25 20.94 12.67 20.3 12.67Z" fill="white"/>
<path d="M46.55 50.15C46.57 49.96 46.6 49.77 46.64 49.58C46.71 49.26 46.7999 48.94 46.9099 48.63C47.0199 48.32 47.19 48.06 47.3 47.76C47.52 47.15 47.72 46.53 47.87 45.9L50.28 45.51C50.84 45.42 51.27 44.97 51.34 44.41C51.58 42.5 51.54 40.59 51.23 38.72C51.14 38.16 50.69 37.73 50.13 37.66L47.69 37.36C47.27 35.85 46.65 34.43 45.84 33.13L47.27 31.14C47.6 30.68 47.59 30.05 47.23 29.6C46.63 28.84 45.98 28.13 45.32 27.49C44.66 26.86 43.93 26.25 43.15 25.68C42.69 25.34 42.06 25.35 41.61 25.71L39.69 27.22C39.35 27.02 39.03 26.86 38.73 26.73C37.66 26.21 36.54 25.81 35.39 25.53L34.99 23.12C34.9 22.56 34.45 22.13 33.89 22.06C31.98 21.82 30.06 21.86 28.2 22.17C27.64 22.26 27.21 22.71 27.14 23.27L26.83 25.7C25.32 26.13 23.9 26.75 22.59 27.56L20.62 26.13C20.16 25.79 19.52 25.81 19.08 26.16C18.32 26.77 17.6099 27.41 16.9699 28.07C16.3199 28.75 15.7 29.49 15.15 30.27C14.82 30.73 14.83 31.35 15.18 31.8L16.69 33.73C15.92 35.1 15.35 36.54 15 38.03L12.59 38.43C12.03 38.52 11.6 38.97 11.53 39.54C11.3 41.42 11.34 43.33 11.65 45.23C11.74 45.79 12.19 46.22 12.76 46.29L15.18 46.59C15.33 46.59 15.38 47.07 15.4 47.17C15.56 48.03 16.06 48.71 16.56 49.4C16.88 49.83 17.29 50.47 16.93 50.99C16.83 51.13 16.73 51.27 16.63 51.41C16.38 51.75 16.13 52.1 15.88 52.44C15.79 52.56 15.7 52.69 15.61 52.81C15.28 53.27 15.29 53.89 15.64 54.34C16.23 55.09 16.87 55.81 17.55 56.47C18.24 57.13 18.96 57.73 19.75 58.3C20.21 58.63 20.83 58.62 21.28 58.27L23.19 56.78C23.62 57.02 26.92 58.41 27.38 58.61C27.39 58.42 28.98 56.36 29.01 56.17C28.99 56.28 29.03 54.43 29.01 54.54C29.06 54.14 26.62 54.94 26.57 54.54C26.54 54.36 25.71 52.27 25.76 52.1C25.8 52 24.6199 55.27 24.6599 55.17C24.8199 54.87 25.11 54.68 25.42 54.58C25.73 54.48 26.1299 54.55 26.4099 54.71C26.8299 54.96 27.01 55.41 27.09 55.88C27.15 56.24 27.14 56.62 27.13 56.99C27.13 57.73 27.1 58.48 27.11 59.22C27.12 60.01 27.1499 60.79 27.1599 61.58C27.1599 61.89 27.17 62.21 27.18 62.52C27.19 63.22 27.76 63.77 28.46 63.77H28.49C29.2 63.76 29.76 63.17 29.74 62.47L29.51 50.87C29.48 49.59 28.8 48.39 27.68 47.67C25.74 46.41 24.56 44.29 24.51 41.98C24.47 39.99 25.28 38.11 26.67 36.79L26.74 40.49C26.74 40.87 26.93 41.23 27.23 41.47L29.75 43.45C30.77 44.27 32.26 44.24 33.2 43.39L35.64 41.3C35.93 41.05 36.09 40.69 36.09 40.3L36.02 36.6C37.47 37.86 38.36 39.71 38.4 41.7C38.45 44 37.35 46.18 35.45 47.52C34.36 48.3 33.73 49.52 33.75 50.79L33.99 62.52C34 63.23 34.62 63.77 35.29 63.77C36 63.76 36.56 63.17 36.54 62.47C36.53 61.75 36.51 61.03 36.5 60.32C36.47 58.76 36.4499 57.2 36.4099 55.65C36.4099 55.59 36.4099 55.54 36.4099 55.48C36.3899 55.22 36.5 54.96 36.65 54.75C36.88 54.39 37.28 54.15 37.74 54.13C38.06 54.12 36.97 54.33 37.19 54.55C37.42 54.78 34.74 55.04 34.75 55.36C34.75 55.57 35.55 58.41 35.56 58.62C35.61 58.96 36.37 58.62 39.17 57.07C39.56 56.87 39.95 56.66 40.32 56.43L42.29 57.85C42.75 58.18 43.37 58.17 43.82 57.82C44.57 57.23 45.29 56.59 45.94 55.91C46.6 55.23 47.21 54.49 47.76 53.71C48.09 53.25 48.08 52.63 47.73 52.18C47.34 51.68 46.94 51.18 46.55 50.68" fill="url(#paint2_linear_3_335)"/>
<path d="M44.05 54.09C43.7 54.46 43.32 54.81 42.94 55.15L41.05 53.79C40.61 53.47 40.01 53.47 39.57 53.79C38.6 54.48 37.52 55.02 36.37 55.44L36.27 50.69C36.27 50.27 36.49 49.84 36.89 49.56C39.48 47.73 40.98 44.76 40.92 41.61C40.84 37.87 38.58 34.52 35.16 33.06C34.76 32.89 34.3 32.93 33.94 33.18C33.58 33.42 33.37 33.83 33.38 34.26L33.49 39.7L31.49 41.42C31.49 41.42 31.38 41.45 31.32 41.4L29.26 39.79L29.15 34.35C29.15 33.92 28.91 33.52 28.54 33.29C28.17 33.06 27.71 33.04 27.32 33.22C23.97 34.82 21.85 38.26 21.92 41.99C21.98 45.15 23.6 48.06 26.26 49.78C26.67 50.05 26.91 50.45 26.92 50.89L27.02 55.63C25.86 55.26 24.77 54.76 23.76 54.12C23.31 53.83 22.72 53.86 22.29 54.19L20.46 55.62C19.67 54.99 18.93 54.28 18.23 53.48L19.59 51.6C19.91 51.16 19.91 50.57 19.61 50.13C18.56 48.6 17.82 46.92 17.42 45.14C17.3 44.62 16.86 44.22 16.33 44.16L14.03 43.88C13.92 42.85 13.89 41.82 13.96 40.8L16.26 40.42C16.79 40.33 17.21 39.92 17.31 39.39C17.61 37.73 18.22 36.13 19.1 34.67L19.31 34.31C19.59 33.86 19.55 33.28 19.23 32.86L17.8 31.03C18.12 30.63 18.46 30.24 18.81 29.87C19.16 29.51 19.53 29.15 19.92 28.81L21.8 30.17C22.24 30.49 22.83 30.49 23.28 30.19C24.77 29.16 26.45 28.42 28.27 28C28.79 27.88 29.18 27.45 29.25 26.91L29.54 24.59C30.56 24.48 31.59 24.46 32.62 24.53L33 26.83C33.09 27.36 33.5 27.78 34.03 27.88C35.27 28.11 36.48 28.51 37.65 29.08C38.08 29.27 38.54 29.52 39.09 29.87C39.55 30.16 40.14 30.13 40.57 29.8L42.41 28.36C42.81 28.69 43.19 29.02 43.56 29.37C43.92 29.72 44.28 30.09 44.62 30.49L43.25 32.39C42.93 32.83 42.93 33.42 43.25 33.87C44.29 35.35 45.02 37.02 45.43 38.84C45.55 39.37 45.98 39.76 46.52 39.83L48.85 40.12C48.96 41.14 48.98 42.17 48.91 43.2L46.61 43.58C46.08 43.67 45.66 44.08 45.56 44.61C45.23 46.43 44.56 48.14 43.58 49.69C43.29 50.15 43.32 50.74 43.66 51.17L45.1 52.99C44.78 53.39 44.44 53.78 44.08 54.15L44.05 54.09Z" fill="#98E1CF"/>
</g>
<defs>
<linearGradient id="paint0_linear_3_335" x1="-2.16992" y1="43.94" x2="70.2401" y2="43.94" gradientUnits="userSpaceOnUse">
<stop stop-color="#5BC8BB"/>
<stop offset="1" stop-color="#BFEEE8"/>
</linearGradient>
<linearGradient id="paint1_linear_3_335" x1="0" y1="8.45" x2="63" y2="8.45" gradientUnits="userSpaceOnUse">
<stop stop-color="#EF4E71"/>
<stop offset="1" stop-color="#EFA4B4"/>
</linearGradient>
<linearGradient id="paint2_linear_3_335" x1="11.36" y1="42.81" x2="51.49" y2="42.81" gradientUnits="userSpaceOnUse">
<stop stop-color="#EF4E71"/>
<stop offset="1" stop-color="#EFA4B4"/>
</linearGradient>
</defs>
</svg>
