<svg width="167" height="115" viewBox="0 0 167 115" fill="none" xmlns="http://www.w3.org/2000/svg">
<path d="M7.92023 0H160.19C163.95 0 167 3.05 167 6.81V25.08H0.240234V7.67C0.240234 3.43 3.68022 0 7.91022 0H7.92023Z" fill="white"/>
<path d="M159.32 115L7.05023 115C3.29024 115 0.240234 111.95 0.240234 108.19V24.87L167 24.87V107.33C167 111.57 163.56 115 159.33 115H159.32Z" fill="#F4F4F4"/>
<path d="M154.5 7.25H66.0803C63.3189 7.25 61.0803 9.48858 61.0803 12.25V12.61C61.0803 15.3714 63.3189 17.61 66.0803 17.61H154.5C157.262 17.61 159.5 15.3714 159.5 12.61V12.25C159.5 9.48858 157.262 7.25 154.5 7.25Z" fill="#F4F4F4"/>
<path d="M40.6503 17.61C43.5111 17.61 45.8303 15.2908 45.8303 12.43C45.8303 9.56916 43.5111 7.25 40.6503 7.25C37.7894 7.25 35.4702 9.56916 35.4702 12.43C35.4702 15.2908 37.7894 17.61 40.6503 17.61Z" fill="#6ED120"/>
<path d="M25.1102 17.61C27.971 17.61 30.2902 15.2908 30.2902 12.43C30.2902 9.56916 27.971 7.25 25.1102 7.25C22.2493 7.25 19.9302 9.56916 19.9302 12.43C19.9302 15.2908 22.2493 17.61 25.1102 17.61Z" fill="#FFD931"/>
<path d="M10.6004 17.61C13.4612 17.61 15.7805 15.2908 15.7805 12.43C15.7805 9.56916 13.4612 7.25 10.6004 7.25C7.73957 7.25 5.42041 9.56916 5.42041 12.43C5.42041 15.2908 7.73957 17.61 10.6004 17.61Z" fill="#F74B7C"/>
<path d="M62.1 31H13.9C10.0893 31 7 34.0892 7 37.9V63.1C7 66.9108 10.0893 70 13.9 70H62.1C65.9107 70 69 66.9108 69 63.1V37.9C69 34.0892 65.9107 31 62.1 31Z" fill="white"/>
<path d="M111.1 31H80.9C77.0893 31 74 34.0892 74 37.9V63.1C74 66.9108 77.0893 70 80.9 70H111.1C114.911 70 118 66.9108 118 63.1V37.9C118 34.0892 114.911 31 111.1 31Z" fill="white"/>
<path d="M151.1 31H131.9C128.089 31 125 34.0892 125 37.9V63.1C125 66.9108 128.089 70 131.9 70H151.1C154.911 70 158 66.9108 158 63.1V37.9C158 34.0892 154.911 31 151.1 31Z" fill="url(#paint0_linear_38_3)"/>
<path d="M111.1 76H13.9C10.0893 76 7 79.0892 7 82.9V102.1C7 105.911 10.0893 109 13.9 109H111.1C114.911 109 118 105.911 118 102.1V82.9C118 79.0892 114.911 76 111.1 76Z" fill="white"/>
<mask id="mask0_38_3" style="mask-type:luminance" maskUnits="userSpaceOnUse" x="125" y="76" width="33" height="33">
<path d="M141.5 109C150.613 109 158 101.613 158 92.5C158 83.3873 150.613 76 141.5 76C132.387 76 125 83.3873 125 92.5C125 101.613 132.387 109 141.5 109Z" fill="white"/>
</mask>
<g mask="url(#mask0_38_3)">
<path d="M123.86 86.37H161.79V105.57C161.79 108.93 159.06 111.66 155.7 111.66H129.92C126.57 111.66 123.86 108.94 123.86 105.6V86.38V86.37Z" fill="url(#paint1_linear_38_3)"/>
<path d="M139.33 94.81L139.76 97.72L141.46 99.01L143.17 97.72V94.09L144.88 95.3L145.73 98.2L145.3 100.62L144.02 103.04L143.17 103.53L143.39 109.26H140.04L139.76 104.01L138.9 101.59L137.19 99.65V97.23L138.05 94.81H139.33Z" fill="white"/>
<path d="M129.06 74.48H153.88C156.16 74.48 158 76.33 158 78.6V86.37H125V78.54C125 76.3 126.82 74.48 129.06 74.48Z" fill="url(#paint2_linear_38_3)"/>
<path d="M152.42 82.67H145.02C144.68 82.67 144.41 82.94 144.41 83.28C144.41 83.62 144.68 83.89 145.02 83.89H152.42C152.76 83.89 153.03 83.62 153.03 83.28C153.03 82.95 152.76 82.67 152.42 82.67Z" fill="white"/>
<path d="M131.73 83.27C131.73 83.62 131.45 83.91 131.09 83.91C130.73 83.91 130.45 83.63 130.45 83.27C130.45 82.91 130.73 82.63 131.09 82.63C131.45 82.63 131.73 82.91 131.73 83.27Z" fill="white"/>
<path d="M133.36 82.63C133.02 82.63 132.72 82.93 132.72 83.27C132.72 83.61 133.02 83.91 133.36 83.91C133.7 83.91 134 83.61 134 83.27C134 82.93 133.7 82.63 133.36 82.63Z" fill="white"/>
<path d="M135.63 82.63C135.29 82.63 134.99 82.93 134.99 83.27C134.99 83.61 135.29 83.91 135.63 83.91C135.97 83.91 136.27 83.61 136.27 83.27C136.27 82.93 135.97 82.63 135.63 82.63Z" fill="white"/>
<path d="M149.38 102.27C149.38 102.17 149.4 102.07 149.43 101.97C149.47 101.8 149.51 101.64 149.57 101.47C149.63 101.3 149.72 101.17 149.77 101.02C149.89 100.7 149.99 100.38 150.07 100.04L151.33 99.83C151.62 99.78 151.85 99.55 151.89 99.25C152.01 98.25 152 97.25 151.83 96.27C151.78 95.98 151.55 95.75 151.25 95.71L149.97 95.55C149.75 94.76 149.42 94.02 149 93.33L149.75 92.29C149.93 92.05 149.92 91.72 149.73 91.48C149.41 91.08 149.08 90.71 148.73 90.38C148.39 90.05 148 89.73 147.59 89.43C147.35 89.25 147.02 89.26 146.78 89.44L145.77 90.23C145.59 90.13 145.42 90.04 145.27 89.98C144.71 89.71 144.12 89.5 143.52 89.35L143.31 88.09C143.26 87.8 143.03 87.57 142.73 87.54C141.73 87.42 140.73 87.44 139.75 87.6C139.46 87.65 139.23 87.88 139.19 88.18L139.03 89.45C138.24 89.67 137.5 90 136.81 90.42L135.78 89.67C135.54 89.49 135.21 89.5 134.97 89.69C134.57 90.01 134.2 90.34 133.87 90.69C133.53 91.05 133.21 91.43 132.91 91.84C132.74 92.08 132.74 92.41 132.93 92.64L133.72 93.65C133.32 94.37 133.02 95.12 132.83 95.9L131.57 96.11C131.28 96.16 131.05 96.39 131.02 96.69C130.9 97.67 130.92 98.68 131.08 99.67C131.13 99.96 131.36 100.19 131.66 100.23L132.93 100.38C133.01 100.38 133.03 100.63 133.04 100.68C133.12 101.13 133.39 101.49 133.65 101.85C133.82 102.08 134.03 102.41 133.85 102.68C133.8 102.75 133.75 102.83 133.69 102.9C133.56 103.08 133.43 103.26 133.3 103.44C133.25 103.5 133.2 103.57 133.16 103.63C132.99 103.87 132.99 104.2 133.18 104.43C133.49 104.82 133.82 105.2 134.18 105.54C134.54 105.89 134.92 106.2 135.33 106.5C135.57 106.67 135.9 106.67 136.13 106.48L137.13 105.7C137.36 105.83 139.09 106.55 139.32 106.66C139.32 106.56 140.16 105.48 140.17 105.38C140.17 105.44 140.17 104.47 140.17 104.53C140.2 104.32 138.92 104.74 138.89 104.53C138.88 104.44 138.44 103.34 138.46 103.25C138.48 103.2 137.86 104.91 137.88 104.86C137.96 104.71 138.12 104.6 138.28 104.55C138.44 104.5 138.65 104.53 138.8 104.62C139.02 104.75 139.11 104.99 139.15 105.23C139.18 105.42 139.18 105.62 139.17 105.81C139.17 106.2 139.15 106.59 139.16 106.98C139.16 107.39 139.18 107.8 139.19 108.22C139.19 108.38 139.19 108.55 139.19 108.71C139.19 109.08 139.5 109.37 139.86 109.37H139.87C140.24 109.37 140.53 109.06 140.53 108.69L140.41 102.61C140.4 101.94 140.04 101.31 139.45 100.93C138.43 100.27 137.81 99.16 137.79 97.95C137.77 96.91 138.19 95.92 138.92 95.23L138.96 97.17C138.96 97.37 139.06 97.56 139.22 97.68L140.54 98.72C141.07 99.15 141.86 99.13 142.35 98.69L143.63 97.6C143.78 97.47 143.87 97.28 143.86 97.08L143.82 95.14C144.58 95.8 145.04 96.77 145.07 97.81C145.09 99.02 144.52 100.15 143.52 100.86C142.95 101.27 142.62 101.91 142.63 102.57L142.75 108.72C142.75 109.09 143.08 109.37 143.43 109.38C143.8 109.38 144.09 109.07 144.09 108.7C144.09 108.32 144.07 107.95 144.07 107.57C144.05 106.75 144.05 105.94 144.02 105.12C144.02 105.09 144.02 105.06 144.02 105.03C144.02 104.89 144.07 104.76 144.14 104.65C144.26 104.46 144.47 104.33 144.71 104.32C144.88 104.32 144.3 104.42 144.42 104.54C144.54 104.66 143.14 104.79 143.14 104.97C143.14 105.08 143.56 106.57 143.57 106.68C143.6 106.86 144 106.68 145.46 105.87C145.67 105.77 145.87 105.66 146.06 105.54L147.09 106.28C147.33 106.45 147.66 106.45 147.89 106.27C148.29 105.96 148.66 105.63 149 105.27C149.34 104.91 149.66 104.53 149.96 104.12C150.13 103.88 150.13 103.55 149.94 103.32C149.73 103.06 149.53 102.8 149.32 102.53" fill="url(#paint3_linear_38_3)"/>
<path d="M148.07 104.33C147.89 104.52 147.69 104.71 147.49 104.89L146.5 104.18C146.27 104.01 145.96 104.01 145.72 104.18C145.21 104.54 144.65 104.83 144.04 105.05L143.99 102.56C143.99 102.34 144.11 102.12 144.31 101.97C145.67 101.01 146.45 99.45 146.42 97.8C146.38 95.84 145.2 94.08 143.4 93.32C143.19 93.23 142.95 93.25 142.76 93.38C142.57 93.51 142.46 93.72 142.47 93.95L142.53 96.8L141.48 97.7C141.48 97.7 141.42 97.72 141.39 97.7L140.31 96.85L140.25 94C140.25 93.77 140.13 93.56 139.93 93.44C139.74 93.32 139.5 93.31 139.29 93.41C137.53 94.25 136.42 96.05 136.46 98C136.49 99.65 137.34 101.18 138.73 102.08C138.95 102.22 139.07 102.43 139.08 102.66L139.13 105.15C138.52 104.95 137.95 104.69 137.42 104.36C137.18 104.21 136.87 104.22 136.65 104.4L135.69 105.15C135.27 104.82 134.89 104.45 134.52 104.03L135.23 103.04C135.4 102.81 135.4 102.5 135.23 102.27C134.68 101.47 134.29 100.59 134.08 99.65C134.02 99.38 133.79 99.17 133.51 99.13L132.3 98.98C132.24 98.44 132.23 97.9 132.26 97.37L133.46 97.17C133.74 97.12 133.96 96.91 134.01 96.63C134.17 95.76 134.49 94.92 134.95 94.16L135.06 93.97C135.21 93.73 135.19 93.43 135.02 93.21L134.27 92.25C134.44 92.04 134.62 91.84 134.8 91.64C134.98 91.45 135.18 91.27 135.38 91.08L136.37 91.79C136.6 91.96 136.91 91.96 137.14 91.79C137.92 91.25 138.8 90.86 139.75 90.64C140.02 90.58 140.23 90.35 140.26 90.07L140.41 88.85C140.94 88.79 141.48 88.78 142.02 88.82L142.22 90.03C142.27 90.31 142.48 90.53 142.76 90.58C143.41 90.7 144.04 90.91 144.66 91.21C144.89 91.31 145.13 91.44 145.41 91.63C145.65 91.78 145.96 91.77 146.19 91.59L147.15 90.83C147.36 91 147.56 91.18 147.75 91.36C147.94 91.54 148.13 91.74 148.31 91.94L147.59 92.93C147.42 93.16 147.42 93.47 147.59 93.71C148.13 94.48 148.52 95.36 148.73 96.32C148.79 96.6 149.02 96.8 149.3 96.84L150.52 96.99C150.58 97.52 150.59 98.06 150.55 98.6L149.34 98.8C149.06 98.85 148.84 99.06 148.79 99.34C148.62 100.29 148.27 101.19 147.75 102C147.6 102.24 147.61 102.55 147.79 102.77L148.54 103.72C148.37 103.93 148.19 104.13 148.01 104.33H148.07Z" fill="#98E1CF"/>
</g>
<defs>
<linearGradient id="paint0_linear_38_3" x1="125" y1="50.5" x2="158" y2="50.5" gradientUnits="userSpaceOnUse">
<stop stop-color="#EF4E71"/>
<stop offset="1" stop-color="#EFA4B4"/>
</linearGradient>
<linearGradient id="paint1_linear_38_3" x1="123.86" y1="99.01" x2="161.79" y2="99.01" gradientUnits="userSpaceOnUse">
<stop stop-color="#5BC8BB"/>
<stop offset="1" stop-color="#BFEEE8"/>
</linearGradient>
<linearGradient id="paint2_linear_38_3" x1="125" y1="80.43" x2="158" y2="80.43" gradientUnits="userSpaceOnUse">
<stop stop-color="#EF4E71"/>
<stop offset="1" stop-color="#EFA4B4"/>
</linearGradient>
<linearGradient id="paint3_linear_38_3" x1="130.95" y1="98.42" x2="151.97" y2="98.42" gradientUnits="userSpaceOnUse">
<stop stop-color="#EF4E71"/>
<stop offset="1" stop-color="#EFA4B4"/>
</linearGradient>
</defs>
</svg>
