<svg width="167" height="115" viewBox="0 0 167 115" fill="none" xmlns="http://www.w3.org/2000/svg">
<path d="M7.92023 0H160.19C163.95 0 167 3.05 167 6.81V25.08H0.240234V7.67C0.240234 3.43 3.68023 0 7.91023 0H7.92023Z" fill="white"/>
<path d="M159.32 115L7.05 115C3.29001 115 0.240005 111.95 0.240005 108.19V24.87L167 24.87V107.33C167 111.57 163.56 115 159.33 115H159.32Z" fill="#F4F4F4"/>
<path d="M154.5 7.25H66.0801C63.3187 7.25 61.0801 9.48858 61.0801 12.25V12.61C61.0801 15.3714 63.3187 17.61 66.0801 17.61H154.5C157.261 17.61 159.5 15.3714 159.5 12.61V12.25C159.5 9.48858 157.261 7.25 154.5 7.25Z" fill="#F4F4F4"/>
<path d="M40.6502 17.61C43.511 17.61 45.8302 15.2908 45.8302 12.43C45.8302 9.56916 43.511 7.25 40.6502 7.25C37.7894 7.25 35.4702 9.56916 35.4702 12.43C35.4702 15.2908 37.7894 17.61 40.6502 17.61Z" fill="#6ED120"/>
<path d="M25.1102 17.61C27.971 17.61 30.2902 15.2908 30.2902 12.43C30.2902 9.56916 27.971 7.25 25.1102 7.25C22.2493 7.25 19.9302 9.56916 19.9302 12.43C19.9302 15.2908 22.2493 17.61 25.1102 17.61Z" fill="#FFD931"/>
<path d="M10.6004 17.61C13.4613 17.61 15.7804 15.2908 15.7804 12.43C15.7804 9.56916 13.4613 7.25 10.6004 7.25C7.73958 7.25 5.42041 9.56916 5.42041 12.43C5.42041 15.2908 7.73958 17.61 10.6004 17.61Z" fill="#F74B7C"/>
<path d="M119.9 56.16H40.2699C35.4981 56.16 31.6299 60.0283 31.6299 64.8V74.3C31.6299 79.0718 35.4981 82.94 40.2699 82.94H119.9C124.672 82.94 128.54 79.0718 128.54 74.3V64.8C128.54 60.0283 124.672 56.16 119.9 56.16Z" fill="url(#paint0_linear_38_2)"/>
<path d="M61.9775 64.6463H65.2925C66.185 64.6463 66.8522 64.829 67.2942 65.1945C67.7362 65.5515 67.9572 66.1253 67.9572 66.9158C67.9572 67.4343 67.8722 67.8423 67.7022 68.1398C67.5407 68.4373 67.2815 68.6838 66.9245 68.8793C67.7575 69.2023 68.174 69.878 68.174 70.9065C68.174 72.5555 67.2475 73.38 65.3945 73.38H61.9775V64.6463ZM65.2925 69.5678H63.3927V72.156H65.318C65.7855 72.156 66.134 72.0583 66.3635 71.8628C66.6015 71.6673 66.7205 71.3315 66.7205 70.8555C66.7205 70.3795 66.5845 70.048 66.3125 69.861C66.0405 69.6655 65.7005 69.5678 65.2925 69.5678ZM65.216 65.8703H63.3927V68.3693H65.267C66.1 68.3693 66.5165 67.94 66.5165 67.0815C66.5165 66.274 66.083 65.8703 65.216 65.8703ZM73.4818 67.005H74.8588V73.38H73.4818V72.9848C72.8613 73.3418 72.2876 73.5203 71.7606 73.5203C70.8851 73.5203 70.2986 73.2865 70.0011 72.819C69.7036 72.343 69.5548 71.5143 69.5548 70.3328V67.005H70.9446V70.3455C70.9446 71.1105 71.0083 71.6248 71.1358 71.8883C71.2633 72.1518 71.5608 72.2835 72.0283 72.2835C72.4873 72.2835 72.9081 72.1985 73.2906 72.0285L73.4818 71.952V67.005ZM79.9712 68.1908H78.2117V70.9958C78.2117 71.5143 78.25 71.8585 78.3265 72.0285C78.403 72.1985 78.5985 72.2835 78.913 72.2835L79.9585 72.2453L80.0222 73.3545C79.4527 73.465 79.0192 73.5203 78.7217 73.5203C77.9992 73.5203 77.502 73.3545 77.23 73.023C76.9665 72.6915 76.8347 72.0668 76.8347 71.1488V68.1908H76.0187V67.005H76.8347V65.1563H78.2117V67.005H79.9712V68.1908ZM84.5408 68.1908H82.7813V70.9958C82.7813 71.5143 82.8195 71.8585 82.896 72.0285C82.9725 72.1985 83.168 72.2835 83.4825 72.2835L84.528 72.2453L84.5918 73.3545C84.0223 73.465 83.5888 73.5203 83.2913 73.5203C82.5688 73.5203 82.0715 73.3545 81.7995 73.023C81.536 72.6915 81.4043 72.0668 81.4043 71.1488V68.1908H80.5883V67.005H81.4043V65.1563H82.7813V67.005H84.5408V68.1908ZM86.0249 67.6935C86.4669 67.141 87.1979 66.8648 88.2179 66.8648C89.2379 66.8648 89.9646 67.141 90.3981 67.6935C90.8401 68.246 91.0611 69.0748 91.0611 70.1798C91.0611 71.2848 90.8486 72.1178 90.4236 72.6788C89.9986 73.2398 89.2634 73.5203 88.2179 73.5203C87.1724 73.5203 86.4371 73.2398 86.0121 72.6788C85.5871 72.1178 85.3746 71.2848 85.3746 70.1798C85.3746 69.0748 85.5914 68.246 86.0249 67.6935ZM87.0704 71.8373C87.2659 72.1773 87.6484 72.3473 88.2179 72.3473C88.7874 72.3473 89.1699 72.1773 89.3654 71.8373C89.5609 71.4973 89.6586 70.9405 89.6586 70.167C89.6586 69.3935 89.5524 68.8453 89.3399 68.5223C89.1359 68.1993 88.7619 68.0378 88.2179 68.0378C87.6739 68.0378 87.2956 68.1993 87.0831 68.5223C86.8791 68.8453 86.7771 69.3935 86.7771 70.167C86.7771 70.9405 86.8749 71.4973 87.0704 71.8373ZM93.8313 73.38H92.4416V67.005H93.8186V67.4003C94.4391 67.0433 95.0256 66.8648 95.5781 66.8648C96.4281 66.8648 97.0061 67.107 97.3121 67.5915C97.6266 68.0675 97.7838 68.858 97.7838 69.963V73.38H96.4068V70.0013C96.4068 69.3128 96.3303 68.824 96.1773 68.535C96.0328 68.246 95.7311 68.1015 95.2721 68.1015C94.8386 68.1015 94.4221 68.1865 94.0226 68.3565L93.8313 68.433V73.38Z" fill="white"/>
<defs>
<linearGradient id="paint0_linear_38_2" x1="31.6299" y1="69.55" x2="128.54" y2="69.55" gradientUnits="userSpaceOnUse">
<stop stop-color="#005D84"/>
<stop offset="1" stop-color="#4A989D"/>
</linearGradient>
</defs>
</svg>
