<svg width="21" height="22" viewBox="0 0 21 22" fill="none" xmlns="http://www.w3.org/2000/svg">
<path d="M0 18.39C0.07 18.15 0.120001 17.91 0.220001 17.69C0.320001 17.48 0.479985 17.31 0.609985 17.12C0.649985 17.07 0.699991 17.01 0.709991 16.95C0.809991 16.25 1.13 15.67 1.63 15.18C4.3 12.51 6.97001 9.83998 9.64001 7.16998C9.69001 7.11998 9.75001 7.08996 9.82001 7.04996C9.54001 6.76996 9.3 6.52998 9.06 6.28998C8.96 6.18998 8.85 6.08998 8.75 5.97998C8.46 5.66998 8.47999 5.23996 8.76999 4.92996C9.05999 4.62996 9.50001 4.59998 9.82001 4.88998C10.15 5.18998 10.45 5.51996 10.77 5.82996C10.8 5.85996 10.83 5.88996 10.87 5.92996C10.91 5.88996 10.96 5.84997 11 5.80997C12.31 4.49997 13.62 3.18997 14.93 1.87997C15.53 1.26997 16.26 0.959961 17.11 0.959961C18.65 0.959961 19.96 2.21997 20.04 3.74997C20.09 4.67997 19.75 5.44998 19.1 6.09998C17.8 7.39998 16.5 8.69997 15.2 9.99997C15.16 10.04 15.1 10.07 15.02 10.13C15.14 10.24 15.22 10.31 15.3 10.38C15.55 10.63 15.81 10.88 16.06 11.14C16.28 11.36 16.37 11.62 16.27 11.92C16.17 12.22 15.95 12.4 15.65 12.46C15.38 12.51 15.16 12.4 14.98 12.22C14.69 11.94 14.41 11.65 14.12 11.36C14.08 11.32 14.05 11.27 13.94 11.19C13.91 11.25 13.89 11.32 13.84 11.37C11.2 14.01 8.55999 16.64 5.92999 19.29C5.40999 19.81 4.83 20.2 4.09 20.31C4.05 20.31 4 20.35 3.97 20.38C3.6 20.72 3.17001 20.92 2.67001 20.99C2.65001 20.99 2.62001 21.01 2.60001 21.02H2.07001C2.07001 21.02 2 21 1.97 20.99C1.07 20.88 0.309987 20.22 0.0799866 19.34C0.0499866 19.22 0.0199902 19.09 -0.0100098 18.97C-0.0100098 18.78 -0.0100098 18.6 -0.0100098 18.41L0 18.39ZM10.86 8.09998C10.86 8.09998 10.79 8.18998 10.75 8.22998C8.1 10.9 5.46 13.57 2.81 16.24C2.5 16.55 2.33999 16.91 2.32999 17.35C2.32999 17.67 2.17999 17.9 1.89999 18.06C1.67999 18.19 1.56999 18.39 1.54999 18.63C1.51999 18.99 1.70999 19.28 2.01999 19.39C2.35999 19.51 2.74001 19.4 2.95001 19.12C3.15001 18.85 3.41 18.71 3.75 18.75C3.96 18.78 4.16 18.72 4.34 18.6C4.47 18.51 4.59999 18.41 4.70999 18.29C7.39999 15.6 10.09 12.92 12.77 10.23C12.81 10.19 12.84 10.15 12.87 10.12C12.19 9.43996 11.53 8.77997 10.84 8.08997L10.86 8.09998Z" fill="url(#paint0_linear_3_364)"/>
<defs>
<linearGradient id="paint0_linear_3_364" x1="-9.756e-06" y1="10.97" x2="20.06" y2="10.97" gradientUnits="userSpaceOnUse">
<stop stop-color="#005D84"/>
<stop offset="1" stop-color="#4A989D"/>
</linearGradient>
</defs>
</svg>
