<svg width="250" height="145" viewBox="0 0 250 145" fill="none" xmlns="http://www.w3.org/2000/svg">
<path d="M7.92023 0H242.19C245.95 0 249 3.05 249 6.81V25.08H0.240234V7.67C0.240234 3.43 3.68023 0 7.91023 0H7.92023Z" fill="white"/>
<path d="M241.32 145L7.05 145C3.29001 145 0.240005 141.95 0.240005 138.19V24.87L249 24.87V137.33C249 141.57 245.56 145 241.33 145H241.32Z" fill="#F4F4F4"/>
<path d="M236.5 7.25H66.0801C63.3187 7.25 61.0801 9.48858 61.0801 12.25V12.61C61.0801 15.3714 63.3187 17.61 66.0801 17.61H236.5C239.261 17.61 241.5 15.3714 241.5 12.61V12.25C241.5 9.48858 239.261 7.25 236.5 7.25Z" fill="#F4F4F4"/>
<path d="M40.6502 17.61C43.511 17.61 45.8302 15.2908 45.8302 12.43C45.8302 9.56916 43.511 7.25 40.6502 7.25C37.7894 7.25 35.4702 9.56916 35.4702 12.43C35.4702 15.2908 37.7894 17.61 40.6502 17.61Z" fill="#6ED120"/>
<path d="M25.1102 17.61C27.971 17.61 30.2902 15.2908 30.2902 12.43C30.2902 9.56916 27.971 7.25 25.1102 7.25C22.2493 7.25 19.9302 9.56916 19.9302 12.43C19.9302 15.2908 22.2493 17.61 25.1102 17.61Z" fill="#FFD931"/>
<path d="M10.6004 17.61C13.4613 17.61 15.7804 15.2908 15.7804 12.43C15.7804 9.56916 13.4613 7.25 10.6004 7.25C7.73958 7.25 5.42041 9.56916 5.42041 12.43C5.42041 15.2908 7.73958 17.61 10.6004 17.61Z" fill="#F74B7C"/>
<text x="10" y="55" font-family="Consolas, monospace" font-size="18" fill="#007575">&lt;link</text>
<text x="25" y="70" font-family="Consolas, monospace" font-size="20" fill="#007575">rel="monetization"</text>
<text x="10" y="85" font-family="Consolas, monospace" font-size="18" fill="#007575">/&gt;</text>
</svg>