<svg width="37" height="25" viewBox="0 0 37 25" fill="none" xmlns="http://www.w3.org/2000/svg">
<path d="M28.4901 20.4899L28.4801 22.6399L2.42006 22.5899L2.45006 8.04994H5.90006L5.91006 5.69994L0.10006 5.68994V7.19994V8.03994L0.0600586 24.7999H0.0700588V24.9399L28.4801 24.9899L30.8301 24.9999L30.8401 20.4999L28.4901 20.4899Z" fill="#F2797F"/>
<path d="M8.95382 22.6097L2.42383 22.5972L2.41928 24.9672L8.94927 24.9797L8.95382 22.6097Z" fill="#F8C6DB"/>
<path d="M2.41862 24.968L2.43115 18.438L0.061154 18.4334L0.0486173 24.9634L2.41862 24.968Z" fill="#A2BDDB"/>
<path d="M2.42887 18.4305L2.44141 11.9005L0.0714117 11.896L0.058875 18.426L2.42887 18.4305Z" fill="#56B6B4"/>
<path d="M15.4538 22.6123L8.92383 22.5997L8.91928 24.9697L15.4493 24.9823L15.4538 22.6123Z" fill="#F69656"/>
<path d="M21.9939 22.6247L15.4639 22.6122L15.4593 24.9822L21.9893 24.9947L21.9939 22.6247Z" fill="#9CD6CB"/>
<path d="M28.5241 22.6373L21.9941 22.6248L21.9896 24.9948L28.5196 25.0073L28.5241 22.6373Z" fill="#7F76B2"/>
<path d="M30.8354 25.007L30.8462 19.387L28.4762 19.3824L28.4654 25.0024L30.8354 25.007Z" fill="#7F76B2"/>
<path d="M5.3243 19.8981L36.0942 19.9572L36.1312 0.707191L5.36125 0.648117L5.3243 19.8981Z" fill="#98E1CF"/>
<path d="M10.5399 11.7667L10.7399 11.7671C11.5076 11.7686 12.1311 11.1475 12.1326 10.3798L12.1329 10.1798C12.1344 9.4121 11.5133 8.78859 10.7456 8.78711L10.5456 8.78673C9.77793 8.78525 9.15442 9.40638 9.15294 10.1741L9.15256 10.3741C9.15108 11.1417 9.77221 11.7652 10.5399 11.7667Z" fill="white"/>
<path d="M20.7304 15.1499C23.3759 15.1499 25.5204 13.0054 25.5204 10.3599C25.5204 7.7145 23.3759 5.56995 20.7304 5.56995C18.085 5.56995 15.9404 7.7145 15.9404 10.3599C15.9404 13.0054 18.085 15.1499 20.7304 15.1499Z" fill="white"/>
<path d="M30.7201 11.798L30.9201 11.7984C31.6877 11.7998 32.3113 11.1787 32.3127 10.411L32.3131 10.211C32.3146 9.44335 31.6935 8.81984 30.9258 8.81836L30.7258 8.81798C29.9581 8.8165 29.3346 9.43763 29.3331 10.2053L29.3327 10.4053C29.3313 11.173 29.9524 11.7965 30.7201 11.798Z" fill="white"/>
</svg>
