<svg width="175" height="123" viewBox="0 0 175 123" fill="none" xmlns="http://www.w3.org/2000/svg">
<g filter="url(#filter0_d_38_4)">
<path d="M10.92 3H163.19C166.95 3 170 6.05 170 9.81V28.08H3.23999V10.67C3.23999 6.43 6.68003 3 10.91 3H10.92Z" fill="white"/>
</g>
<g filter="url(#filter1_d_38_4)">
<path d="M162.32 118L10.05 118C6.29005 118 3.23999 114.95 3.23999 111.19V27.87L170 27.87V110.33C170 114.57 166.56 118 162.33 118H162.32Z" fill="#F4F4F4"/>
</g>
<path d="M157.5 10.25H69.0801C66.3187 10.25 64.0801 12.4886 64.0801 15.25V15.61C64.0801 18.3714 66.3187 20.61 69.0801 20.61H157.5C160.262 20.61 162.5 18.3714 162.5 15.61V15.25C162.5 12.4886 160.262 10.25 157.5 10.25Z" fill="#F4F4F4"/>
<path d="M43.65 20.61C46.5109 20.61 48.83 18.2908 48.83 15.43C48.83 12.5692 46.5109 10.25 43.65 10.25C40.7892 10.25 38.47 12.5692 38.47 15.43C38.47 18.2908 40.7892 20.61 43.65 20.61Z" fill="#6ED120"/>
<path d="M28.1101 20.61C30.9709 20.61 33.2902 18.2908 33.2902 15.43C33.2902 12.5692 30.9709 10.25 28.1101 10.25C25.2493 10.25 22.9302 12.5692 22.9302 15.43C22.9302 18.2908 25.2493 20.61 28.1101 20.61Z" fill="#FFD931"/>
<path d="M13.5999 20.61C16.4607 20.61 18.7799 18.2908 18.7799 15.43C18.7799 12.5692 16.4607 10.25 13.5999 10.25C10.739 10.25 8.41992 12.5692 8.41992 15.43C8.41992 18.2908 10.739 20.61 13.5999 20.61Z" fill="#F74B7C"/>
<path d="M65.75 80H12.25C9.90279 80 8 81.9028 8 84.25V108.75C8 111.097 9.90279 113 12.25 113H65.75C68.0972 113 70 111.097 70 108.75V84.25C70 81.9028 68.0972 80 65.75 80Z" fill="white"/>
<path d="M108.75 80H80.25C77.9028 80 76 81.9028 76 84.25V108.75C76 111.097 77.9028 113 80.25 113H108.75C111.097 113 113 111.097 113 108.75V84.25C113 81.9028 111.097 80 108.75 80Z" fill="white"/>
<path d="M160.75 80H123.25C120.903 80 119 81.9028 119 84.25V108.75C119 111.097 120.903 113 123.25 113H160.75C163.097 113 165 111.097 165 108.75V84.25C165 81.9028 163.097 80 160.75 80Z" fill="white"/>
<path d="M170 28H3V76H170V28Z" fill="url(#paint0_linear_38_4)"/>
<defs>
<filter id="filter0_d_38_4" x="0.23999" y="0" width="174.76" height="33.08" filterUnits="userSpaceOnUse" color-interpolation-filters="sRGB">
<feFlood flood-opacity="0" result="BackgroundImageFix"/>
<feColorMatrix in="SourceAlpha" type="matrix" values="0 0 0 0 0 0 0 0 0 0 0 0 0 0 0 0 0 0 127 0" result="hardAlpha"/>
<feOffset dx="1" dy="1"/>
<feGaussianBlur stdDeviation="2"/>
<feColorMatrix type="matrix" values="0 0 0 0 0.576471 0 0 0 0 0.858824 0 0 0 0 0.819608 0 0 0 0.45 0"/>
<feBlend mode="normal" in2="BackgroundImageFix" result="effect1_dropShadow_38_4"/>
<feBlend mode="normal" in="SourceGraphic" in2="effect1_dropShadow_38_4" result="shape"/>
</filter>
<filter id="filter1_d_38_4" x="0.23999" y="24.87" width="174.76" height="98.13" filterUnits="userSpaceOnUse" color-interpolation-filters="sRGB">
<feFlood flood-opacity="0" result="BackgroundImageFix"/>
<feColorMatrix in="SourceAlpha" type="matrix" values="0 0 0 0 0 0 0 0 0 0 0 0 0 0 0 0 0 0 127 0" result="hardAlpha"/>
<feOffset dx="1" dy="1"/>
<feGaussianBlur stdDeviation="2"/>
<feColorMatrix type="matrix" values="0 0 0 0 0.576471 0 0 0 0 0.858824 0 0 0 0 0.819608 0 0 0 0.45 0"/>
<feBlend mode="normal" in2="BackgroundImageFix" result="effect1_dropShadow_38_4"/>
<feBlend mode="normal" in="SourceGraphic" in2="effect1_dropShadow_38_4" result="shape"/>
</filter>
<linearGradient id="paint0_linear_38_4" x1="3" y1="52" x2="170" y2="52" gradientUnits="userSpaceOnUse">
<stop stop-color="#5BC8BB"/>
<stop offset="1" stop-color="#BFEEE8"/>
</linearGradient>
</defs>
</svg>
